<?xml version="1.0" encoding="UTF-8" standalone="no"?><svg width="25" height="25" viewBox="0 0 25 25" fill="none" xmlns="http://www.w3.org/2000/svg">
<g clip-path="url(#clip0)">
<path d="M13.5473 11.4936L23.1538 6.69029C23.4478 6.54327 23.567 6.18573 23.42 5.89169C23.3624 5.7765 23.269 5.6831 23.1538 5.6255L12.0678 0.0821289C11.8482 -0.0280273 11.5889 -0.0280273 11.3686 0.0821289L1.84574 4.84424C1.55171 4.99127 1.43255 5.34882 1.57959 5.64285C1.63719 5.75803 1.73059 5.85143 1.84577 5.90902L13.0149 11.4936C13.1824 11.5773 13.3797 11.5773 13.5473 11.4936Z" fill="#7035C2"/>
<path d="M14.0625 13.3508V23.7386C14.0625 24.0673 14.329 24.3338 14.6577 24.3338C14.7502 24.3338 14.8413 24.3123 14.924 24.2709L24.568 19.4486C24.8328 19.3165 25 19.0462 25 18.7501V8.47732C25 8.14858 24.7335 7.88208 24.4048 7.88208C24.3124 7.88208 24.2212 7.90359 24.1386 7.94492L14.3915 12.8184C14.1899 12.9193 14.0625 13.1254 14.0625 13.3508Z" fill="#F45BA4"/>
<path d="M12.171 12.8183L0.861437 7.16356C0.567402 7.01654 0.209858 7.13572 0.062841 7.42976C0.0215149 7.51241 0 7.60355 0 7.69595V17.9688C0 18.2649 0.167187 18.5352 0.432031 18.668L11.6386 24.2709C11.9326 24.4179 12.2902 24.2987 12.4372 24.0047C12.4785 23.922 12.5 23.8309 12.5 23.7385V13.3507C12.5 13.1253 12.3726 12.9191 12.171 12.8183Z" fill="#F45BA4"/>
</g>
<defs>
<clipPath id="clip0">
<rect width="25" height="25" fill="white"/>
</clipPath>
</defs>
</svg>
