<?xml version="1.0" encoding="UTF-8" standalone="no"?><svg width="25" height="23" viewBox="0 0 25 23" fill="none" xmlns="http://www.w3.org/2000/svg">
<path d="M24.4565 0.0869141H14.1304C13.8298 0.0869141 13.5869 0.329849 13.5869 0.630392V10.9565C13.5869 11.1625 13.7032 11.3505 13.8875 11.4429C13.9641 11.4809 14.0478 11.5 14.1304 11.5C14.2456 11.5 14.3608 11.4635 14.4565 11.3913L18.6592 8.23909H24.4565C24.757 8.23909 25 7.99615 25 7.69561V0.630392C25 0.329849 24.757 0.0869141 24.4565 0.0869141Z" fill="#F45BA4"/>
<path d="M12.4364 17.9457C11.2832 17.4848 9.41522 16.9348 7.06522 16.9348C4.71522 16.9348 2.84728 17.4848 1.69348 17.9457C0.665217 18.3582 0 19.3468 0 20.4642V22.3696C0 22.6701 0.242935 22.9131 0.543478 22.9131H13.587C13.8875 22.9131 14.1304 22.6701 14.1304 22.3696V20.4642C14.1304 19.3468 13.4652 18.3582 12.4364 17.9457Z" fill="#7035C2"/>
<path d="M7.0656 15.3043C9.4743 15.3043 11.4134 12.331 11.4134 9.86955C11.4134 7.47227 9.46288 5.52173 7.0656 5.52173C4.66832 5.52173 2.71777 7.47227 2.71777 9.86955C2.71777 12.331 4.6569 15.3043 7.0656 15.3043Z" fill="#7035C2"/>
</svg>
