<?xml version="1.0" encoding="UTF-8" standalone="no"?><svg width="25" height="25" viewBox="0 0 25 25" fill="none" xmlns="http://www.w3.org/2000/svg">
<path d="M24.5624 0.441666C24.3537 0.231539 24.0655 0.120173 23.7697 0.135416C9.15723 0.897916 3.75931 13.9146 3.70723 14.0458C3.55141 14.4329 3.64159 14.8756 3.93639 15.1708L9.8291 21.0635C10.1258 21.3598 10.5712 21.4493 10.9593 21.2906C11.0895 21.2375 24.0364 15.7792 24.8635 1.23542C24.8804 0.94009 24.7709 0.651503 24.5624 0.441666ZM16.0562 11.8896C15.4604 12.4855 14.5643 12.6639 13.7857 12.3415C13.0071 12.0191 12.4995 11.2594 12.4995 10.4167C12.4995 9.57398 13.0071 8.81428 13.7857 8.49186C14.5643 8.16943 15.4604 8.34779 16.0562 8.94375C16.8695 9.75729 16.8695 11.076 16.0562 11.8896Z" fill="#7035C2"/>
<path d="M1.15938 19.6291C1.90692 18.8764 2.99984 18.5809 4.02481 18.8543C5.04978 19.1277 5.85034 19.9282 6.12373 20.9532C6.39712 21.9782 6.10161 23.0711 5.34896 23.8187C4.19167 24.9759 0 24.9999 0 24.9999C0 24.9999 0 20.7853 1.15938 19.6291Z" fill="#7035C2"/>
<path d="M10.7883 2.43863C7.80869 1.92004 4.7633 2.88555 2.6268 5.02613C2.06971 5.58837 1.58538 6.21829 1.18513 6.90113C0.94406 7.31046 1.01047 7.83105 1.34659 8.16675L3.41846 10.2397C5.34369 7.18427 7.84715 4.53431 10.7883 2.43863Z" fill="#F45BA4"/>
<path d="M22.5618 14.2114C23.0804 17.191 22.1149 20.2364 19.9743 22.3729C19.412 22.93 18.7821 23.4143 18.0993 23.8146C17.6899 24.0556 17.1694 23.9892 16.8337 23.6531L14.7607 21.5812C17.8161 19.656 20.4661 17.1525 22.5618 14.2114Z" fill="#F45BA4"/>
</svg>
